<?xml version="1.0" encoding="UTF-8"?>

<!DOCTYPE svg PUBLIC '-//W3C//DTD SVG 1.0//EN' 'http://www.w3.org/TR/2001/REC-SVG-20010904/DTD/svg10.dtd'>
<svg xmlns:xlink="http://www.w3.org/1999/xlink" style="fill-opacity:1; color-rendering:auto; color-interpolation:auto; stroke:black; text-rendering:auto; stroke-linecap:square; stroke-miterlimit:10; stroke-opacity:1; shape-rendering:auto; fill:black; stroke-dasharray:none; font-weight:normal; stroke-width:1; font-family:&apos;Dialog&apos;; font-style:normal; stroke-linejoin:miter; font-size:12; stroke-dashoffset:0; image-rendering:auto;" xmlns="http://www.w3.org/2000/svg">
  <!--Generated by the Batik Graphics2D SVG Generator-->
  <defs id="genericDefs" />
  <g>
    <g style="fill:white; stroke:white;">
      <rect x="419" y="20" width="1" style="stroke:none;" height="20" />
      <rect x="0" y="20" width="419" style="fill:rgb(84,92,175); stroke:none;" height="19" />
      <text x="183.8359" y="34.7725" style="font-family:&apos;Verdana&apos;; stroke:none; font-weight:bold;" xml:space="preserve">octobre</text>
      <rect x="699" y="20" width="1" style="stroke:none;" height="20" />
      <rect x="420" y="20" width="279" style="fill:rgb(84,92,175); stroke:none;" height="19" />
      <text x="525.7119" y="34.7725" style="font-family:&apos;Verdana&apos;; stroke:none; font-weight:bold;" xml:space="preserve">novembre</text>
      <rect x="83" y="40" width="1" style="stroke:none;" height="20" />
      <rect x="0" y="40" width="83" style="fill:rgb(84,92,175); stroke:none;" height="19" />
      <text x="0.0156" y="54.7725" style="font-family:&apos;Verdana&apos;; stroke:none; font-weight:bold;" xml:space="preserve">Semaine d...</text>
      <rect x="279" y="40" width="1" style="stroke:none;" height="20" />
      <rect x="84" y="40" width="195" style="fill:rgb(84,92,175); stroke:none;" height="19" />
      <text x="147.6328" y="54.7725" style="font-family:&apos;Verdana&apos;; stroke:none; font-weight:bold;" xml:space="preserve">20/10/08</text>
      <rect x="475" y="40" width="1" style="stroke:none;" height="20" />
      <rect x="280" y="40" width="195" style="fill:rgb(84,92,175); stroke:none;" height="19" />
      <text x="343.6328" y="54.7725" style="font-family:&apos;Verdana&apos;; stroke:none; font-weight:bold;" xml:space="preserve">27/10/08</text>
      <rect x="671" y="40" width="1" style="stroke:none;" height="20" />
      <rect x="476" y="40" width="195" style="fill:rgb(84,92,175); stroke:none;" height="19" />
      <text x="539.6328" y="54.7725" style="font-family:&apos;Verdana&apos;; stroke:none; font-weight:bold;" xml:space="preserve">03/11/08</text>
      <rect x="699" y="40" width="1" style="stroke:none;" height="20" />
      <rect x="672" y="40" width="27" style="fill:rgb(84,92,175); stroke:none;" height="19" />
      <text x="672.832" y="54.7725" style="font-family:&apos;Verdana&apos;; stroke:none; font-weight:bold;" xml:space="preserve">1...</text>
      <rect x="27" y="60" width="1" style="fill:rgb(204,204,204); stroke:none;" height="20" />
      <rect x="0" y="60" width="27" style="stroke:none;" height="20" />
      <rect x="55" y="60" width="1" style="fill:rgb(204,204,204); stroke:none;" height="20" />
      <rect x="28" y="60" width="27" style="fill:rgb(204,204,204); stroke:none;" height="20" />
      <rect x="83" y="60" width="1" style="fill:rgb(204,204,204); stroke:none;" height="20" />
      <rect x="56" y="60" width="27" style="fill:rgb(204,204,204); stroke:none;" height="20" />
      <rect x="111" y="60" width="1" style="fill:rgb(204,204,204); stroke:none;" height="20" />
      <rect x="84" y="60" width="27" style="stroke:none;" height="20" />
      <rect x="139" y="60" width="1" style="fill:rgb(204,204,204); stroke:none;" height="20" />
      <rect x="112" y="60" width="27" style="stroke:none;" height="20" />
      <rect x="167" y="60" width="1" style="fill:rgb(204,204,204); stroke:none;" height="20" />
      <rect x="140" y="60" width="27" style="stroke:none;" height="20" />
      <rect x="195" y="60" width="1" style="fill:rgb(204,204,204); stroke:none;" height="20" />
      <rect x="168" y="60" width="27" style="stroke:none;" height="20" />
      <rect x="223" y="60" width="1" style="fill:rgb(204,204,204); stroke:none;" height="20" />
      <rect x="196" y="60" width="27" style="stroke:none;" height="20" />
      <rect x="251" y="60" width="1" style="fill:rgb(204,204,204); stroke:none;" height="20" />
      <rect x="224" y="60" width="27" style="fill:rgb(204,204,204); stroke:none;" height="20" />
      <rect x="279" y="60" width="1" style="fill:rgb(204,204,204); stroke:none;" height="20" />
      <rect x="252" y="60" width="27" style="fill:rgb(204,204,204); stroke:none;" height="20" />
      <rect x="307" y="60" width="1" style="fill:rgb(204,204,204); stroke:none;" height="20" />
      <rect x="280" y="60" width="27" style="stroke:none;" height="20" />
      <rect x="335" y="60" width="1" style="fill:rgb(204,204,204); stroke:none;" height="20" />
      <rect x="308" y="60" width="27" style="stroke:none;" height="20" />
      <rect x="363" y="60" width="1" style="fill:rgb(204,204,204); stroke:none;" height="20" />
      <rect x="336" y="60" width="27" style="stroke:none;" height="20" />
      <rect x="391" y="60" width="1" style="fill:rgb(204,204,204); stroke:none;" height="20" />
      <rect x="364" y="60" width="27" style="stroke:none;" height="20" />
      <rect x="419" y="60" width="1" style="fill:rgb(204,204,204); stroke:none;" height="20" />
      <rect x="392" y="60" width="27" style="stroke:none;" height="20" />
      <rect x="447" y="60" width="1" style="fill:rgb(204,204,204); stroke:none;" height="20" />
      <rect x="420" y="60" width="27" style="fill:rgb(204,204,204); stroke:none;" height="20" />
      <rect x="475" y="60" width="1" style="fill:rgb(204,204,204); stroke:none;" height="20" />
      <rect x="448" y="60" width="27" style="fill:rgb(204,204,204); stroke:none;" height="20" />
      <rect x="503" y="60" width="1" style="fill:rgb(204,204,204); stroke:none;" height="20" />
      <rect x="476" y="60" width="27" style="stroke:none;" height="20" />
      <rect x="531" y="60" width="1" style="fill:rgb(204,204,204); stroke:none;" height="20" />
      <rect x="504" y="60" width="27" style="stroke:none;" height="20" />
      <rect x="559" y="60" width="1" style="fill:rgb(204,204,204); stroke:none;" height="20" />
      <rect x="532" y="60" width="27" style="stroke:none;" height="20" />
      <rect x="587" y="60" width="1" style="fill:rgb(204,204,204); stroke:none;" height="20" />
      <rect x="560" y="60" width="27" style="stroke:none;" height="20" />
      <rect x="615" y="60" width="1" style="fill:rgb(204,204,204); stroke:none;" height="20" />
      <rect x="588" y="60" width="27" style="stroke:none;" height="20" />
      <rect x="643" y="60" width="1" style="fill:rgb(204,204,204); stroke:none;" height="20" />
      <rect x="616" y="60" width="27" style="fill:rgb(204,204,204); stroke:none;" height="20" />
      <rect x="671" y="60" width="1" style="fill:rgb(204,204,204); stroke:none;" height="20" />
      <rect x="644" y="60" width="27" style="fill:rgb(204,204,204); stroke:none;" height="20" />
      <rect x="699" y="60" width="1" style="fill:rgb(204,204,204); stroke:none;" height="20" />
      <rect x="672" y="60" width="27" style="stroke:none;" height="20" />
      <rect x="27" y="80" width="1" style="fill:rgb(204,204,204); stroke:none;" height="109" />
      <rect x="0" y="80" width="27" style="stroke:none;" height="109" />
      <rect x="55" y="80" width="1" style="fill:rgb(204,204,204); stroke:none;" height="109" />
      <rect x="28" y="80" width="27" style="fill:rgb(204,204,204); stroke:none;" height="109" />
      <rect x="83" y="80" width="1" style="fill:rgb(204,204,204); stroke:none;" height="109" />
      <rect x="56" y="80" width="27" style="fill:rgb(204,204,204); stroke:none;" height="109" />
      <rect x="111" y="80" width="1" style="fill:rgb(204,204,204); stroke:none;" height="109" />
      <rect x="84" y="80" width="27" style="stroke:none;" height="109" />
      <rect x="139" y="80" width="1" style="fill:rgb(204,204,204); stroke:none;" height="109" />
      <rect x="112" y="80" width="27" style="stroke:none;" height="109" />
      <rect x="167" y="80" width="1" style="fill:rgb(204,204,204); stroke:none;" height="109" />
      <rect x="140" y="80" width="27" style="stroke:none;" height="109" />
      <rect x="195" y="80" width="1" style="fill:rgb(204,204,204); stroke:none;" height="109" />
      <rect x="168" y="80" width="27" style="stroke:none;" height="109" />
      <rect x="223" y="80" width="1" style="fill:rgb(204,204,204); stroke:none;" height="109" />
      <rect x="196" y="80" width="27" style="stroke:none;" height="109" />
      <rect x="251" y="80" width="1" style="fill:rgb(204,204,204); stroke:none;" height="109" />
      <rect x="224" y="80" width="27" style="fill:rgb(204,204,204); stroke:none;" height="109" />
      <rect x="279" y="80" width="1" style="fill:rgb(204,204,204); stroke:none;" height="109" />
      <rect x="252" y="80" width="27" style="fill:rgb(204,204,204); stroke:none;" height="109" />
      <rect x="307" y="80" width="1" style="fill:rgb(204,204,204); stroke:none;" height="109" />
      <rect x="280" y="80" width="27" style="stroke:none;" height="109" />
      <rect x="335" y="80" width="1" style="fill:rgb(204,204,204); stroke:none;" height="109" />
      <rect x="308" y="80" width="27" style="stroke:none;" height="109" />
      <rect x="363" y="80" width="1" style="fill:rgb(204,204,204); stroke:none;" height="109" />
      <rect x="336" y="80" width="27" style="stroke:none;" height="109" />
      <rect x="391" y="80" width="1" style="fill:rgb(204,204,204); stroke:none;" height="109" />
      <rect x="364" y="80" width="27" style="stroke:none;" height="109" />
      <rect x="419" y="80" width="1" style="fill:rgb(204,204,204); stroke:none;" height="109" />
      <rect x="392" y="80" width="27" style="stroke:none;" height="109" />
      <rect x="447" y="80" width="1" style="fill:rgb(204,204,204); stroke:none;" height="109" />
      <rect x="420" y="80" width="27" style="fill:rgb(204,204,204); stroke:none;" height="109" />
      <rect x="475" y="80" width="1" style="fill:rgb(204,204,204); stroke:none;" height="109" />
      <rect x="448" y="80" width="27" style="fill:rgb(204,204,204); stroke:none;" height="109" />
      <rect x="503" y="80" width="1" style="fill:rgb(204,204,204); stroke:none;" height="109" />
      <rect x="476" y="80" width="27" style="stroke:none;" height="109" />
      <rect x="531" y="80" width="1" style="fill:rgb(204,204,204); stroke:none;" height="109" />
      <rect x="504" y="80" width="27" style="stroke:none;" height="109" />
      <rect x="559" y="80" width="1" style="fill:rgb(204,204,204); stroke:none;" height="109" />
      <rect x="532" y="80" width="27" style="stroke:none;" height="109" />
      <rect x="587" y="80" width="1" style="fill:rgb(204,204,204); stroke:none;" height="109" />
      <rect x="560" y="80" width="27" style="stroke:none;" height="109" />
      <rect x="615" y="80" width="1" style="fill:rgb(204,204,204); stroke:none;" height="109" />
      <rect x="588" y="80" width="27" style="stroke:none;" height="109" />
      <rect x="643" y="80" width="1" style="fill:rgb(204,204,204); stroke:none;" height="109" />
      <rect x="616" y="80" width="27" style="fill:rgb(204,204,204); stroke:none;" height="109" />
      <rect x="671" y="80" width="1" style="fill:rgb(204,204,204); stroke:none;" height="109" />
      <rect x="644" y="80" width="27" style="fill:rgb(204,204,204); stroke:none;" height="109" />
      <rect x="699" y="80" width="1" style="fill:rgb(204,204,204); stroke:none;" height="109" />
      <rect x="672" y="80" width="27" style="stroke:none;" height="109" />
      <rect x="0" y="20" width="700" style="fill:none; stroke:silver;" height="169" />
      <rect x="0" y="60" width="700" style="opacity:0.5; stroke:none;" rx="6" ry="6" height="20" />
      <rect x="1" y="81" width="699" style="opacity:0.5; stroke:none;" rx="6" ry="6" height="108" />
      <text x="3" y="90" style="fill:black; stroke:none;" xml:space="preserve">Module 2</text>
    </g>
  </g>
</svg>
